
		<svg xmlns="http://www.w3.org/2000/svg" xmlns:xlink="http://www.w3.org/1999/xlink" version="1.1" width="3160" height="1296">

			<g transform="scale(5) translate(10, 10)">
				<g id="SvgjsG1841" featureKey="root" fill="#000" transform="matrix(1,0,0,1,NaN,NaN)"></g><g id="SvgjsG1842"><path d="M49.51 139.43C52.31 142.56 65.28 144.12 85.61 144.12C113.3 144.12 116.86 143.91 120.72 150.95C123.38 155.79 132.78 169.32 137.54 169.57C142.79 169.83 145.47 153.3 149.71 147.95C153.21 143.65 162.52 145.12 166.38 145.12C181.8 145.12 178.85 139.82 178.85 90.1C178.85 63.88 178.15 40.78 176.75 38.43C173.59 32.56 54.77 33.34 49.51 39.22C43.55 45.87 43.55 132.77 49.51 139.43ZM160.27 128.47C156.07 128.47 149.06 132.38 144.5 137.08C143.96 137.63 141.27 140.37 136.44 145.3C131.6 140.37 128.91 137.63 128.38 137.08C121.36 129.64 116.11 128.47 89.82 128.47C87.78 128.47 77.62 128.47 59.32 128.47L59.32 87.36L59.32 46.26L113.65 46.26L167.98 46.26L167.98 87.36C167.75 114.77 165.18 128.47 160.27 128.47Z" id="SvgjsDefs1840" fill="#fff"></path>
				<path d="M97.18 80.71C100.33 79.93 103.14 76.8 103.14 74.06C103.14 67.79 96.83 64.27 93.32 68.18C88.42 73.66 90.87 81.88 97.18 80.71Z" id="SvgjsDefs1840" fill="#fff"></path>
				<path d="M131.18 80.32C137.84 77.19 137.84 71.31 131.18 68.18C128.02 67.01 124.87 68.57 123.47 72.1C121.01 79.54 124.17 83.06 131.18 80.32Z" id="a1bHWWEUg" fill="#fff"></path><path d="M112.95 108.89C127.32 108.89 142.75 101.46 150.46 91.28C157.82 81.49 151.86 79.93 140.64 89.32C124.52 102.63 105.59 103.8 89.82 91.67C74.39 79.93 72.29 79.14 74.04 87.76C75.45 97.15 97.53 108.89 112.95 108.89Z" id="akAMA2Da" fill="#fff"></path>
				<text id="c8t06y02X" fill="#fff" x="10.11" y="41.32" font-size="50" font-family="Poppins" font-weight="600" font-style="normal" letter-spacing="0" alignment-baseline="before-edge" transform="matrix(0.9999748051053478 -0.007098531856763751 0.007098531856763748 0.9999748051053478 -26.61806098700652 42.99215947063735)" style="line-height:100%" xml:space="preserve" dominant-baseline="text-before-edge"><tspan x="224.11" dy="0em" alignment-baseline="before-edge" dominant-baseline="text-before-edge" text-anchor="start">vlog</tspan></text><style id="poppins600normal">
				    @font-face {
				    font-family: "Poppins";
				    font-weight: 600;
				  </style><text id="dssDklGRM" fill="#fff" x="230.11" y="141.31" font-size="50" font-family="Poppins" font-weight="normal" font-style="normal" letter-spacing="2" alignment-baseline="before-edge" transform="matrix(1 0 0 1 18.17142501839072 -59.393110630368994)" style="line-height:100%" xml:space="preserve" dominant-baseline="text-before-edge"><tspan x="270.11" dy="0em" alignment-baseline="before-edge" dominant-baseline="text-before-edge" text-anchor="start">orami</tspan></text><style id="poppinsnormalnormal">
				    @font-face {
				    font-family: "Poppins";
				    font-weight: normal;
				</style>
			</g></g>
		</svg>
